<svg width="329" height="434" viewBox="0 0 329 434" fill="none" xmlns="http://www.w3.org/2000/svg">
<path d="M155.178 0.230957C108.624 2.94624 65.8876 31.3505 44.9436 73.4948C38.8365 85.8772 35.8691 94.0142 33.4103 105.8C30.8675 118.266 30.1025 131.577 30.1025 169.905V205.35L27.8117 205.858C14.6687 208.741 5.51016 216.374 1.52569 227.735C0.0840234 231.804 0 237.654 0 319.82V407.585L1.95022 412.418C6.19119 423.019 17.0435 431.072 28.9129 432.686C36.5457 433.619 292.454 433.619 300.087 432.686C311.956 431.076 322.813 423.019 327.05 412.418L329 407.585V319.82C329 237.654 328.916 231.804 327.474 227.735C323.49 216.374 314.331 208.741 301.272 205.858L298.898 205.35V170.329C298.813 131.918 298.132 118.182 295.59 105.888C284.737 53.8245 243.186 12.9538 190.53 2.26962C181.207 0.403421 166.795 -0.445652 155.178 0.230957ZM175.781 43.3924C189.349 45.0861 203.084 50.1762 214.958 57.8931C221.742 62.3861 235.562 76.0377 239.887 82.6534C248.028 95.1198 252.946 108.515 254.723 122.675C255.232 127.168 255.656 145.826 255.656 168.295V206.199L164.756 206.031L73.7725 205.779L73.516 168.892C73.3479 148.032 73.684 128.53 74.1086 123.949C79.4551 73.5789 125.5 37.1172 175.781 43.3924ZM171.032 266.488C184.091 269.287 193.842 279.463 196.301 292.858C198.083 302.268 194.607 312.868 187.315 320.669L183.582 324.654V337.288C183.582 347.804 183.242 350.515 181.972 353.315C178.921 359.93 171.461 364.764 164.504 364.764C157.548 364.764 150.088 359.93 147.036 353.315C145.763 350.515 145.427 347.804 145.427 337.288V324.654L141.694 320.669C134.318 312.784 130.926 302.441 132.62 293.11C134.995 280.051 143.897 270.216 156.447 266.74C161.369 265.386 165.438 265.302 171.032 266.488Z" fill="white"/>
</svg>
